<svg xmlns="http://www.w3.org/2000/svg" xmlns:xlink="http://www.w3.org/1999/xlink" width="2294" height="553" viewBox="0 0 2294 553"><defs><path id="su05a" d="M194.74 71.75s166.3-21.22 316.09 161.29c149.8 182.5 281.5 46.85 454.64 46.85s223.07 95.12 346.4 95.12c0 0 108.24 5.63 226.97-86.01 6.52 43.81-204.98 234-204.98 234L-160 492l30-117S-50 71.76 194.74 71.76z"/><path id="su05b" d="M1566.23 172.75s-166.31-21.22-316.12 161.29c-149.8 182.5-281.53 46.85-454.68 46.85-173.16 0-223.1 95.12-346.43 95.12 0 0-108.25 5.63-227-86.01-6.51 43.81 205 234 205 234l1494-31-30-117s-80-303.25-324.77-303.25z"/><path id="su05c" d="M-48.23 234.75s166.31-21.22 316.12 161.29c149.8 182.5 281.53 46.85 454.68 46.85 173.16 0 223.1 95.12 346.43 95.12H-373s80-303.26 324.77-303.26z"/></defs><g><g transform="translate(373 -71)"><use fill="#1f1d1b" xlink:href="#su05a"/></g><g transform="translate(373 -71)"><use fill="#1f1d1b" xlink:href="#su05b"/></g><g transform="translate(373 -71)"><use fill="#22201e" xlink:href="#su05c"/></g></g></svg>