<svg xmlns="http://www.w3.org/2000/svg" xmlns:xlink="http://www.w3.org/1999/xlink" width="1848" height="362" viewBox="0 0 1848 362"><defs><path id="m370a" d="M521.1 2877.97s125.49 4.03 210.9-94.62c98.87-114.2 235.68 1.94 346.55 1.94 127 0 125.3-81.37 305.45-81.37L1309.08 2598l-1183.1 31.33H-21.43L-68 2693.74s139.09 3.22 244.42 54.23c149.21 72.26 188.26 130 344.67 130z"/><path id="m370b" d="M822.14 2846.43s130.66 2.08 248.51-96.9c125.2-105.16 218.79-12.48 349.44-12.48 149.63 0 147.63-72.43 359.91-72.43L1691.72 2516 400 2540.35 128 2629s163.89 3.8 288 64c175.83 85.28 221.83 153.43 406.14 153.43z"/></defs><g><g transform="translate(68 -2516)"><use fill="#e47307" xlink:href="#m370a"/></g><g transform="translate(68 -2516)"><use fill="#fff" xlink:href="#m370b"/></g></g></svg>